<svg xmlns="http://www.w3.org/2000/svg" xml:space="preserve" width="512" height="512" viewBox="0 0 24 24">
  <path fill="none" stroke="#000" stroke-width="2.07" d="M12 22.05A10 10 0 0 1 1.95 12 10 10 0 0 1 12 1.95 10 10 0 0 1 22.05 12 10 10 0 0 1 12 22.05z"/>
  <g fill-rule="evenodd">
    <path fill="none" stroke="#000" stroke-linejoin="round" stroke-width="1.1" d="M14.1 14.3c-1.59 0-2.82.7-2.82 1.5s1.23 1.5 2.83 1.5 2.82-.7 2.82-1.5-1.23-1.5-2.82-1.5z"/>
    <path fill="#fff" stroke="#000" stroke-linecap="round" stroke-linejoin="round" stroke-width="1.31" d="M10.35 16.86v.02c.02.02.02.05.02.06l-.01.01h-.01l-2.16 2.1a.94.94 0 0 0-.3.63 1.39 1.39 0 0 0 .1.62 1.54 1.54 0 0 1 .1.41 1.46 1.46 0 0 1-.04.5l-.01.04c-.1.32-.29.57-.56.74l-.15.07a1.1 1.1 0 0 1-.82.05c-.22-.08-.41-.2-.56-.37a.37.37 0 0 0-.34-.13c-.13.02-.25.03-.38.02a2.02 2.02 0 0 1-1.72-1.14h0a2.3 2.3 0 0 1 .06-2.18 2.07 2.07 0 0 1 .22-.32.37.37 0 0 0 .08-.34 1.4 1.4 0 0 1 .02-.73 1.25 1.25 0 0 1 .6-.78 1.18 1.18 0 0 1 .44-.15 1.2 1.2 0 0 1 .89.27c.12.1.21.21.3.34 0 0 0 0 0 0a1.27 1.27 0 0 0 .36.39.9.9 0 0 0 .58.16l3.28-.29z" paint-order="markers fill stroke"/>
    <path d="M5.57 17.93s-1.08.3-1.12 1.4a.37.37 0 0 0 .75.02c.02-.55.57-.7.57-.7a.37.37 0 0 0-.2-.72z" paint-order="markers stroke fill"/>
  </g>
  <g transform="matrix(.08 0 0 .08 .21 -1.38)">
    <circle cx="83.47" cy="106.16" r="16" data-original="#000000"/>
    <circle cx="182.47" cy="106.16" r="16" data-original="#000000"/>
    <path d="M177.16 139.62a23.3 23.3 0 0 1-18.08-16.59c-.45-2.55 1.1-5.17 3.17-5.7s5.27.62 5.7 3.16c-.1.47 2.27 7.85 10.73 9.64 8.46 1.79 13.6-4 13.7-4.46a5.04 5.04 0 0 1 4.73-1.46c.94.2 1.4.3 1.78.87 2.15 1.44 2.5 4.45.59 6.5.27 1.04-7.76 11.12-22.32 8.04zm-87.29-.03a23.31 23.31 0 0 0 17.9-16.79c.4-2.55-1.16-5.15-3.24-5.67-2.08-.52-5.26.68-5.67 3.23.1.47-2.18 7.87-10.62 9.75-8.43 1.89-13.65-3.84-13.75-4.3a5.04 5.04 0 0 0-4.74-1.4c-.94.2-1.4.3-1.77.88-2.14 1.46-2.45 4.48-.52 6.51-.26 1.04 7.88 11.03 22.4 7.79zm104.05-48.15c-14.1-4.8-23.26 4.26-24.02 5.01-1.68 1.96-1.7 5-.2 6.53 1.51 1.53 4.85 2.16 6.53.2.16-.46 5.96-5.59 14.14-2.8 8.18 2.78 9.66 10.38 9.5 10.83a5.04 5.04 0 0 0 3.32 3.67c.9.3 1.36.46 1.97.16 2.58-.13 4.42-2.55 3.83-5.29.76-.75-.98-13.52-15.07-18.31zm-98.09-.33c-14.1-4.79-23.26 4.26-24.03 5.02-1.68 1.96-1.7 5-.19 6.53s4.85 2.15 6.53.19c.15-.46 5.96-5.58 14.14-2.8 8.18 2.79 9.65 10.39 9.5 10.84a5.04 5.04 0 0 0 3.31 3.67c.91.3 1.37.46 1.98.16 2.58-.14 4.42-2.55 3.83-5.29.76-.75-.98-13.52-15.07-18.32z"/>
  </g>
</svg>
