<svg xmlns="http://www.w3.org/2000/svg" xml:space="preserve" width="512" height="512" viewBox="0 0 24 24">
  <path fill="none" stroke="#000" stroke-width="2.07" d="M12 22.05A10 10 0 0 1 1.95 12 10 10 0 0 1 12 1.95 10 10 0 0 1 22.05 12 10 10 0 0 1 12 22.05z"/>
  <path stroke="#000" stroke-width=".29" d="M9.4 7.82a3 3 0 0 0-4.24 0 .71.71 0 1 0 1.01 1 1.57 1.57 0 0 1 2.22 0 .71.71 0 0 0 1.01 0 .71.71 0 0 0 0-1zm9.44 0a3 3 0 0 0-4.24 0 .71.71 0 1 0 1 1 1.57 1.57 0 0 1 2.23 0 .71.71 0 0 0 1 0 .71.71 0 0 0 0-1zm-.5 3.69H5.66c-.4 0-.72.32-.72.71a7.06 7.06 0 0 0 14.1 0 .71.71 0 0 0-.72-.71zM12 17.84a5.63 5.63 0 0 1-5.57-4.9h11.14a5.63 5.63 0 0 1-5.57 4.9z" data-original="#000000"/>
</svg>
