<svg xmlns="http://www.w3.org/2000/svg" xml:space="preserve" width="512" height="512" viewBox="0 0 24 24">
  <path fill="none" stroke="#000" stroke-width="2.07" d="M12 22.05A10 10 0 0 1 1.95 12 10 10 0 0 1 12 1.95 10 10 0 0 1 22.05 12 10 10 0 0 1 12 22.05z"/>
  <g transform="matrix(.081 0 0 .081 .15 -.99)">
    <circle cx="93.28" cy="129.23" r="16" data-original="#000000"/>
    <circle cx="192.28" cy="129.23" r="16" data-original="#000000"/>
    <path d="M146.3 191.18c-38.27 0-53.08 29.62-54.32 32.1-2.46 6.16 0 13.57 4.94 16.04s13.58 1.23 16.05-4.94c0-1.23 9.87-18.51 32.1-18.51s32.09 17.28 32.09 18.51c2.47 3.7 6.17 6.17 11.1 6.17 2.48 0 3.71 0 4.95-1.23 6.17-2.47 8.64-9.88 4.93-16.05 1.24-2.47-13.58-32.1-51.84-32.1z"/>
  </g>
</svg>
